<svg width="384" height="94" viewBox="0 0 384 94" fill="none" xmlns="http://www.w3.org/2000/svg">
<g clip-path="url(#clip0_7_226)">
<path d="M40.1448 17.9854C40.1448 17.9854 33.9015 7.49792 22.5 -3.00001M290.328 93.953C292.736 70.5892 300.392 58.7914 298.5 35.5C296.648 12.7055 283.98 -1.41467 280.819 -24.0106M15.3713 50.8839C15.3713 50.8839 38.4488 60.123 53.947 60.2177C66.2526 60.293 73.2747 58.5137 84.9617 54.6715C99.141 50.01 108.197 47.3249 118.702 36.7343C127.651 27.7134 129.347 19.9611 135.037 8.60389C141.588 -4.47305 145.09 -12.0087 149.395 -25.9862C152.19 -35.06 155.113 -49.6163 155.113 -49.6163M207.5 97C226.745 73.4072 228.568 71.4801 256.208 62.2015C275.237 55.8136 305.001 60.347 323.5 67M325.763 101.218C337.316 89.3934 346.003 83.4877 352.214 68.1666C358.784 51.9565 363.324 39.2558 355.7 23.5137C349.72 11.1668 340.782 7.77306 329.125 0.539417C311.827 -10.1953 300.008 -15.9138 279.649 -15.8861C260.139 -15.8596 248.553 -11.1019 232.063 -0.67495C217.184 8.73343 211.33 17.6166 200.43 31.4408C188.347 46.7666 170.435 77.2574 163.5 95.5M18.2071 89.3549C18.2071 89.3549 35.6621 71.9296 45.7157 59.8507C56.7319 46.6151 61.5224 38.1974 71.7092 24.3628C79.8557 13.2992 83.5699 6.46277 92.628 -3.92736M396.5 26C385.686 34.4752 371.574 45.9022 360.062 53.4842C350.991 59.4586 345.544 62.3141 335.852 67.3313C324.882 73.0108 319.148 77.4653 307.039 80.5645C300.821 82.1559 297.209 82.8269 290.735 83.1926C280.721 83.7584 265 80.5606 265 80.5606M342.713 85.327C342.713 85.327 302.274 74.2237 275.811 69.9214C237.378 63.6731 214.566 70.6356 176.326 63.2997C147.126 57.6982 129.178 56.5249 103.23 42.0107C85.369 32.0199 62 9.66289 62 9.66289M106 104.5C109.265 76.4249 134.457 77.6067 142.59 50.5378C153.986 12.6108 151.527 5.57642 142.735 -19.5833L142.59 -20" stroke="url(#paint0_linear_7_226)" stroke-width="29.6865" stroke-linecap="round"/>
</g>
<defs>
<linearGradient id="paint0_linear_7_226" x1="15.3713" y1="104.5" x2="122.495" y2="-160.415" gradientUnits="userSpaceOnUse">
<stop stop-color="#F09433"/>
<stop offset="0.25" stop-color="#E6683C"/>
<stop offset="0.5" stop-color="#DC2743"/>
<stop offset="0.75" stop-color="#CC2366"/>
<stop offset="1" stop-color="#BC1888"/>
</linearGradient>
<clipPath id="clip0_7_226">
<rect width="384" height="94" fill="white"/>
</clipPath>
</defs>
</svg>
